<?xml version="1.0" standalone="no"?>
<!DOCTYPE svg PUBLIC "-//W3C//DTD SVG 20010904//EN"
 "http://www.w3.org/TR/2001/REC-SVG-20010904/DTD/svg10.dtd">
<svg version="1.0" xmlns="http://www.w3.org/2000/svg"
 width="148.000000pt" height="66.000000pt" viewBox="0 0 148.000000 66.000000"
 preserveAspectRatio="xMidYMid meet">

<g transform="translate(0.000000,66.000000) scale(0.100000,-0.100000)"
fill="#000000" stroke="none">
<path d="M243 645 c-219 -68 -310 -300 -187 -477 37 -52 118 -105 193 -124 53
-13 74 -14 130 -4 91 16 177 59 245 125 71 68 65 93 -7 30 -29 -25 -81 -60
-117 -78 -58 -29 -73 -32 -155 -32 -103 0 -144 16 -207 82 -94 97 -91 234 9
324 81 73 187 88 287 40 66 -32 157 -119 236 -226 37 -50 80 -104 96 -120 121
-126 282 -196 413 -181 265 31 394 327 225 515 -132 147 -346 152 -521 12 -54
-42 -90 -87 -80 -98 3 -3 28 14 54 37 164 144 379 150 491 14 102 -123 46
-308 -108 -359 -138 -46 -279 29 -428 228 -179 240 -391 348 -569 292z"/>
</g>
</svg>
